HIERARCHY
ROOT hip
{
	OFFSET 0.000000 0.000000 0.000000 
	CHANNELS 6 Xposition Yposition Zposition Xrotation Zrotation Yrotation
	JOINT abdomen
	{
		OFFSET 0.000000 3.402643 0.000000 
		CHANNELS 3 Xrotation Zrotation Yrotation
		JOINT chest
		{
			OFFSET 0.000000 8.438565 -0.680529 
			CHANNELS 3 Xrotation Zrotation Yrotation
			JOINT neck
			{
				OFFSET 0.000000 10.207942 -0.272212 
				CHANNELS 3 Xrotation Zrotation Yrotation
				JOINT head
				{
					OFFSET 0.000000 3.130431 0.000000 
					CHANNELS 3 Xrotation Zrotation Yrotation
					End Site
					{
						OFFSET 0.000000 3.130435 0.000000 
					}
				}
			}
			JOINT lCollar
			{
				OFFSET 3.470700 6.669187 -0.816635 
				CHANNELS 3 Yrotation Zrotation Xrotation
				JOINT lShldr
				{
					OFFSET 3.198488 0.000000 0.000000 
					CHANNELS 3 Zrotation Yrotation Xrotation
					JOINT lForeArm
					{
						OFFSET 10.139888 0.000000 0.000000 
						CHANNELS 3 Yrotation Zrotation Xrotation
						JOINT lHand
						{
							OFFSET 8.370511 0.000000 0.000000 
							CHANNELS 3 Zrotation Yrotation Xrotation
							End Site
							{
								OFFSET 4.083176 0.000000 0.000000 
							}
						}
					}
				}
			}
			JOINT rCollar
			{
				OFFSET -3.470700 6.669187 -0.816635 
				CHANNELS 3 Yrotation Zrotation Xrotation
				JOINT rShldr
				{
					OFFSET -3.198488 0.000000 0.000000 
					CHANNELS 3 Zrotation Yrotation Xrotation
					JOINT rForeArm
					{
						OFFSET -10.139888 0.000000 0.000000 
						CHANNELS 3 Yrotation Zrotation Xrotation
						JOINT rHand
						{
							OFFSET -8.370511 0.000000 0.000000 
							CHANNELS 3 Zrotation Yrotation Xrotation
							End Site
							{
								OFFSET -4.083176 0.000000 0.000000 
							}
						}
					}
				}
			}
		}
	}
	JOINT lThigh
	{
		OFFSET 5.308129 -1.633274 1.361059 
		CHANNELS 3 Xrotation Zrotation Yrotation
		JOINT lShin
		{
			OFFSET -2.041588 -20.007561 0.000000 
			CHANNELS 3 Xrotation Zrotation Yrotation
			JOINT lFoot
			{
				OFFSET 0.000000 -19.190928 -1.224953 
				CHANNELS 3 Xrotation Yrotation Zrotation
				End Site
				{
					OFFSET 0.000000 -2.449906 4.627600 
				}
			}
		}
	}
	JOINT rThigh
	{
		OFFSET -5.308129 -1.633274 1.361059 
		CHANNELS 3 Xrotation Zrotation Yrotation
		JOINT rShin
		{
			OFFSET 2.041588 -20.007561 0.000000 
			CHANNELS 3 Xrotation Zrotation Yrotation
			JOINT rFoot
			{
				OFFSET 0.000000 -19.190928 -1.224953 
				CHANNELS 3 Xrotation Yrotation Zrotation
				End Site
				{
					OFFSET 0.000000 -2.449906 4.627600 
				}
			}
		}
	}
}
MOTION
Frames: 11
Frame Time: 0.033333
-1.516032 41.284412 -2.314649 -178.243225 -1.257840 -10.510396 0.000000 0.000000 0.000000 -4.744013 2.238980 7.017403 -40.489872 6.083870 0.353722 -28.423512 1.083970 -0.292916 44.742195 29.992649 -13.945955 -0.830773 -32.528446 -36.772369 -21.702740 38.970165 -83.926758 84.938858 17.586906 -11.813042 -26.785301 -30.000000 3.140930 -21.120733 12.388722 35.648163 -28.201601 -7.105564 -144.468246 -69.944214 -56.376091 -16.344282 17.290178 1.349226 16.921741 3.795271 1.943073 1.028393 53.020439 -22.675310 1.282564 17.968334 4.452869 2.210820 0.691896 -1.062425 -1.036290 51.353069 -4.275105 -4.029991 
-1.557307 40.994045 -2.127287 -177.321869 -1.229228 -10.461578 0.000000 0.000000 0.000000 -5.497785 2.297038 7.037314 -40.697113 5.898332 0.344002 -28.485132 0.966759 -0.507740 44.994587 29.995770 -14.550890 -2.849553 -34.785839 -36.805180 -19.528849 41.301296 -80.419373 82.696701 19.416750 -12.490591 -27.183233 -30.000000 2.698133 -19.186157 14.526883 34.920078 -31.714672 -7.305163 -143.058273 -68.289490 -56.428577 -17.013105 16.466578 1.603402 17.059029 3.719434 1.963749 1.049790 52.198082 -23.103827 -0.366579 17.366346 4.578370 2.247899 -0.507903 -1.356198 -1.152540 52.283035 -2.997348 -0.589742 
-1.607283 40.668926 -1.907797 -176.059311 -1.276556 -10.627772 0.000000 0.000000 0.000000 -6.476364 2.500307 7.086936 -40.864937 5.761622 0.334275 -28.897055 0.878845 -0.673899 45.000000 29.991518 -15.254324 -5.134741 -36.817619 -36.680969 -18.047432 43.874096 -77.260735 80.788155 21.046808 -12.864058 -27.520399 -30.000000 2.139594 -16.378588 16.841122 34.282009 -35.621967 -7.683683 -141.220520 -66.587410 -56.470913 -17.909676 15.184600 1.992530 17.310997 3.647787 2.011677 1.022767 51.492748 -23.485003 -0.759342 16.052874 4.814105 2.281062 -1.157974 -1.584053 -1.192881 52.596016 -2.363122 -0.114298 
-1.661751 40.285767 -1.728040 -174.886887 -1.246630 -10.901137 0.000000 0.000000 0.000000 -7.420005 2.597052 7.117080 -41.217983 5.673738 0.324549 -29.144625 1.210709 -1.113445 44.997421 29.989977 -16.407349 -9.357585 -38.665993 -35.904415 -18.485590 47.204033 -73.133369 79.285332 22.445629 -12.925362 -27.839949 -30.000000 1.607440 -13.323140 19.207958 33.756447 -39.696121 -8.273528 -139.394104 -64.804634 -56.491127 -19.095951 14.070170 2.275808 17.495939 3.377241 1.954683 1.027600 51.160179 -23.544865 -0.553077 14.851175 4.882246 2.320247 -1.746745 -1.705882 -1.262062 52.388344 -1.775014 -0.553109 
-1.702186 39.859951 -1.555134 -173.786102 -1.101726 -11.183867 0.000000 0.000000 0.000000 -8.340836 2.577726 7.106882 -41.598785 5.683503 0.324550 -29.344421 1.649706 -1.650831 44.993904 29.994490 -17.373514 -13.036759 -40.320019 -35.127678 -19.768885 50.313713 -68.925262 78.174500 23.520149 -12.886906 -27.925997 -30.000000 1.211837 -9.719239 21.374737 33.546844 -43.834324 -9.286250 -138.057770 -63.053009 -56.494743 -20.283560 12.908561 2.392731 17.586222 3.271010 1.926073 1.058831 51.211548 -23.604168 -0.278112 13.487801 4.792644 2.281615 -1.937636 -1.681906 -1.257442 51.660149 -1.294245 -0.608980 
-1.744139 39.389915 -1.386811 -173.005951 -1.167752 -11.438115 0.000000 0.000000 0.000000 -8.877475 2.722853 7.146808 -41.931843 5.673743 0.314831 -29.579721 1.854223 -2.100405 44.996159 29.998276 -18.306782 -17.289883 -41.509865 -33.923084 -22.193138 53.391655 -64.559502 77.400826 24.315466 -12.781710 -28.077362 -30.000000 0.842989 -6.207220 23.218859 33.614643 -47.795799 -10.575586 -137.527588 -61.249741 -56.492561 -21.490046 12.002172 2.676379 17.723387 3.427142 1.886224 1.025672 51.570671 -23.932295 -0.022935 12.450243 4.853380 2.337537 -2.025982 -1.712342 -1.278034 51.131676 -1.024524 -0.214629 
-1.766062 38.851795 -1.281841 -173.086044 -1.377466 -11.614735 0.000000 0.000000 0.000000 -8.556963 2.926087 7.187270 -42.186180 5.595619 0.314820 -29.677841 1.931591 -2.608902 44.996059 29.990465 -18.931261 -21.079706 -42.449501 -32.736729 -25.245121 56.205486 -60.299709 76.815216 25.023355 -12.526325 -28.151772 -29.999840 0.380766 -1.687402 24.862644 34.188473 -52.016212 -12.147534 -137.721390 -58.930046 -56.477257 -23.016340 12.195575 2.803084 17.768478 3.448433 1.863307 0.976303 52.022743 -24.234529 0.716055 12.562220 4.841699 2.319561 -2.436241 -1.733130 -1.316167 51.114849 -0.194447 0.697054 
-1.711159 38.238411 -1.196859 -173.107819 -1.254327 -11.340696 0.000000 0.000000 0.000000 -8.534017 2.810000 7.157511 -42.267326 5.380789 0.294425 -29.446529 1.667438 -3.126233 44.998695 29.989042 -19.150187 -25.118473 -43.429443 -31.361038 -29.344191 59.218384 -55.745697 76.618530 25.554842 -11.999836 -28.305269 -30.000000 0.051875 1.952430 26.260832 34.768101 -55.875549 -13.735421 -138.167511 -57.692612 -56.485756 -23.604115 12.066905 2.236759 17.592533 3.494136 2.199106 1.077138 52.482105 -24.846798 1.803116 12.503111 4.304734 2.171347 -2.711185 -1.627338 -1.317173 51.342014 -0.077244 1.314061 
-1.656674 37.586418 -1.096455 -172.794205 -0.986962 -11.124741 0.000000 0.000000 0.000000 -8.940575 2.616377 7.126837 -42.259262 5.224546 0.284694 -29.021324 1.608494 -3.399564 44.991009 29.993505 -19.113012 -28.489595 -44.575581 -30.200371 -34.212440 61.770802 -50.042965 76.358444 26.005680 -11.686530 -28.139559 -30.000000 0.012340 5.613366 27.635239 35.494164 -59.823265 -15.084265 -138.305344 -56.561928 -56.464794 -24.386953 11.494639 1.573500 17.352795 3.596988 2.526360 1.167851 52.332436 -25.658180 2.102737 12.167152 3.740128 2.008493 -3.239724 -1.608609 -1.340602 51.230251 -0.439806 0.399580 
-1.601357 36.868793 -0.991999 -172.400238 -0.709199 -11.075172 0.000000 0.000000 0.000000 -9.437337 2.480872 7.096692 -42.445847 5.195253 0.274967 -28.506233 1.783856 -3.458698 44.999180 29.988611 -19.049992 -32.484386 -45.243572 -28.625677 -40.167900 64.239265 -42.829994 75.958122 26.379395 -11.680057 -27.874931 -30.000000 0.111513 9.310923 29.254133 36.253597 -64.140434 -16.205919 -138.056839 -55.245525 -56.408421 -25.540533 10.852394 0.948436 17.209383 3.600916 2.783644 1.171165 51.543530 -26.467163 1.671745 11.724521 3.280571 1.875726 -3.801835 -1.665422 -1.400176 51.675980 -0.242365 1.442120 
-1.553500 36.052578 -0.912656 -172.304718 -0.546184 -11.123559 0.000000 0.000000 0.000000 -9.753878 2.451852 7.086932 -42.601009 5.234311 0.284695 -28.020720 2.008118 -3.429733 44.992302 29.996315 -18.550274 -35.418209 -46.294872 -27.500704 -47.031181 66.048920 -33.974056 75.245705 26.742603 -12.180529 -27.234303 -30.000000 0.813073 11.668737 31.173096 36.450577 -68.453201 -17.106110 -137.281128 -53.982033 -56.333782 -26.586420 10.671679 0.440113 17.045694 3.489051 2.926320 1.243229 50.500889 -27.031147 1.193514 11.655694 2.948688 1.774770 -4.441428 -1.774151 -1.448578 51.787197 -0.194500 1.940355 
